<?xml version="1.0" standalone="no"?>
<!DOCTYPE svg PUBLIC "-//W3C//DTD SVG 1.1//EN" "http://www.w3.org/Graphics/SVG/1.1/DTD/svg11.dtd" >
<svg xmlns="http://www.w3.org/2000/svg">
<metadata>Generated by IcoMoon</metadata>
<defs>
<font id="swordfish" horiz-adv-x="512">
<font-face units-per-em="512" ascent="480" descent="-32" />
<missing-glyph horiz-adv-x="512" />
<glyph unicode="&#x20;" d="" horiz-adv-x="256" />
<glyph unicode="&#xe000;" d="M222.996 331.807c43.489 0 78.848-35.686 78.848-79.575 0-14.817-4.178-29.358-12.042-42.045l-7.137-11.5-10.066-8.243c-14.203-11.622-31.345-17.746-49.592-17.746-43.469 0-78.828 35.686-78.828 79.555-0.010 43.867 35.349 79.554 78.817 79.554zM222.996 367.165c-62.884 0-113.879-51.446-113.879-114.924 0-63.457 50.985-114.913 113.879-114.913 27.177 0 52.081 9.626 71.67 25.651 0.881-1.608 1.7-3.256 3.052-4.618l70.922-71.597c3.912-3.932 9.042-5.919 14.182-5.919 5.12 0 10.26 1.956 14.182 5.939 7.844 7.895 7.844 20.695 0 28.621l-70.943 71.619c-1.935 1.946-4.178 3.4-6.584 4.383 10.957 17.674 17.398 38.472 17.398 60.836 0.001 63.477-50.974 114.922-113.879 114.922v0z" />
<glyph unicode="&#xe001;" d="M255.939 377.6c-84.828 0-153.6-68.772-153.6-153.6s68.772-153.6 153.6-153.6 153.6 68.772 153.6 153.6-68.772 153.6-153.6 153.6zM331.909 175.176l-27.136-27.146-48.835 48.824-48.835-48.824-27.136 27.146 48.825 48.824-48.824 48.824 27.136 27.146 48.835-48.824 48.835 48.824 27.136-27.146-48.815-48.824 48.814-48.824z" />
<glyph unicode="&#xe002;" d="M447.621 267.080l-132.403 19.272-59.218 120.135-59.208-120.136-132.413-19.272 95.805-93.522-22.62-132.055 118.436 62.362 118.426-62.351-22.62 132.055 95.815 93.512zM256 133.489v213.729l41.82-84.849 93.501-13.609-67.656-66.038 15.974-93.256-83.639 44.023z" />
<glyph unicode="&#xe003;" d="M447.621 267.080l-132.403 19.272-59.218 120.135-59.208-120.136-132.413-19.272 95.805-93.522-22.62-132.055 118.436 62.362 118.426-62.351-22.62 132.055 95.815 93.512z" />
<glyph unicode="&#xe004;" d="M447.621 267.080l-132.403 19.272-59.218 120.135-59.208-120.136-132.413-19.272 95.805-93.522-22.62-132.055 118.436 62.362 118.426-62.351-22.62 132.055 95.815 93.512zM256 133.489l-83.63-44.032 15.974 93.256-67.656 66.038 93.512 13.609 41.81 84.849 41.82-84.849 93.501-13.609-67.656-66.038 15.974-93.256-83.649 44.032z" />
<glyph unicode="&#xe005;" d="M47.104 244.895h417.792v-41.779h-417.792z" />
<glyph unicode="&#xe006;" d="M409.6 205.076v38.4l-45.896 19.128c-1.27 3.604-2.621 7.076-4.27 10.496l18.534 46.131-27.156 27.146-45.711-18.831c-3.492 1.69-7.045 3.113-10.732 4.434l-19.456 45.599h-38.4l-18.985-45.445c-3.82-1.352-7.485-2.775-11.131-4.495l-45.64 18.33-27.146-27.136 18.606-45.23c-1.812-3.717-3.267-7.496-4.659-11.397l-45.158-19.313v-38.4l45.189-18.821c1.393-3.901 2.888-7.7 4.68-11.407l-18.258-45.517 27.146-27.146 45.343 18.668c3.635-1.731 7.363-3.113 11.182-4.434l19.415-45.445h38.4l19.005 45.681c3.625 1.352 7.229 2.775 10.68 4.424l46.049-18.452 27.146 27.146-18.903 45.824c1.608 3.441 2.929 6.943 4.198 10.496l45.928 19.566zM255.703 166.39c-31.785 0-57.6 25.805-57.6 57.6 0 31.785 25.815 57.6 57.6 57.6 31.795 0 57.6-25.815 57.6-57.6 0-31.795-25.805-57.6-57.6-57.6z" />
<glyph unicode="&#xe007;" d="M323.185 377.6h-134.4l-86.405-86.405v-134.4l86.405-86.395h134.4l86.405 86.405v134.39l-86.405 86.405zM275.18 128h-38.4v38.4h38.4v-38.4zM275.18 204.8h-38.4v115.2h38.4v-115.2z" />
<glyph unicode="&#xe008;" d="M255.949 377.6c-84.828 0-153.6-68.772-153.6-153.6s68.772-153.6 153.6-153.6 153.6 68.772 153.6 153.6-68.772 153.6-153.6 153.6zM232.141 153.119l-70.666 70.687 27.146 27.146 43.51-43.54 92.334 92.324 27.136-27.146-119.46-119.471z" />
<glyph unicode="&#xe009;" d="M256 377.6c-84.828 0-153.6-68.772-153.6-153.6s68.772-153.6 153.6-153.6 153.6 68.772 153.6 153.6-68.772 153.6-153.6 153.6zM275.18 128h-38.4v38.4h38.4v-38.4zM275.18 204.8h-38.4v115.2h38.4v-115.2z" />
<glyph unicode="&#xe00a;" d="M229.345 263.168v101.868h17.807v-101.868h-17.807zM181.453 263.168v101.868h-41.093v-101.868h41.093zM214.077 263.168v101.868h-17.818v-101.868h17.818zM312.617 263.168v101.868h-24.136v-101.868h24.136zM417.26 263.168v101.868h-17.807v-101.868h17.807zM378.122 263.168v101.868h-41.083v-101.868h41.083zM118.886 263.168v101.868h-24.146v-101.868h24.146zM94.74 184.832v-101.868h24.146v101.868h-24.146zM399.452 184.832v-101.868h17.807v101.868h-17.807zM288.481 184.832v-101.868h24.136v101.868h-24.136zM337.050 184.832v-101.868h41.083v101.868h-41.083zM140.36 184.832v-101.868h41.093v101.868h-41.093zM196.26 184.832v-101.868h17.818v101.868h-17.818zM229.345 184.832v-101.868h17.807v101.868h-17.807z" />
<glyph unicode="&#xe00b;" d="M118.886 82.964h-24.146v282.072h24.146v-282.072zM312.617 82.964h-24.136v282.072h24.136v-282.072zM214.077 82.964h-17.818l0.001 282.072h17.818l-0.001-282.072zM247.153 82.964h-17.807l-0.001 282.072h17.807l0.001-282.072zM417.26 82.964h-17.807l-0.001 282.072h17.807l0.001-282.072zM181.453 82.964h-41.093v282.072h41.093v-282.072zM378.122 82.964h-41.083v282.072h41.083v-282.072z" />
<glyph unicode="&#xe00c;" d="M238.469 391.352c-0.092 0.010-0.215 0.031-0.317 0.041-8.202 1.014-23.941 2.959-29.768 3.645v-0.020c-1.731 0.195-11.684 1.423-12.943 1.587-5.898 0.727-5.898 0.727-28.969-28.518-12.677-16.108-45.885-57.098-45.885-57.098l-22.979-186.399c-2.007-16.292-0.696-27.095 15.995-29.133l52.92-8.643 4.055 196.332 0.123 5.652 3.082 4.731c0.297 0.461 30.444 46.551 41.82 64.481 10.691 16.856 17.244 27.137 22.866 33.342zM375.921 344.474c-19.64 33.915-19.64 33.915-25.917 34.038-1.321 0.031-11.837 0.246-13.681 0.287v0.040c-6.185 0.143-22.887 0.502-31.581 0.676-4.178 0.082-10.199 0.215-16.015 0.328-6.267 0.133-12.308 0.256-15.544 0.307v-0.041c-1.823 0.041-12.37 0.256-13.671 0.276-0.389 0.010-0.748 0.020-1.096 0.020-0.051 0-0.092-0.010-0.154-0.010-0.276 0-0.563-0.010-0.819-0.020l-0.276-0.031c-0.215-0.020-0.42-0.051-0.635-0.092-0.102-0.020-0.205-0.061-0.317-0.092-0.184-0.051-0.369-0.102-0.573-0.184-0.113-0.031-0.225-0.102-0.338-0.164-0.184-0.082-0.369-0.174-0.553-0.287-0.143-0.061-0.246-0.164-0.379-0.256-0.184-0.133-0.369-0.256-0.573-0.42-0.133-0.113-0.266-0.225-0.399-0.348-0.205-0.184-0.41-0.379-0.635-0.614-0.144-0.123-0.298-0.287-0.441-0.451-0.225-0.246-0.471-0.502-0.717-0.799-0.154-0.215-0.317-0.41-0.502-0.625-0.246-0.307-0.522-0.645-0.788-1.014-0.195-0.246-0.389-0.502-0.594-0.768-0.287-0.41-0.614-0.84-0.942-1.29-0.215-0.287-0.41-0.584-0.635-0.911-0.348-0.492-0.717-1.044-1.106-1.608-0.236-0.348-0.481-0.686-0.717-1.065-0.42-0.625-0.86-1.29-1.331-1.976-0.246-0.399-0.512-0.778-0.788-1.198-0.481-0.737-1.004-1.556-1.536-2.365-0.297-0.471-0.594-0.922-0.911-1.423-0.584-0.891-1.188-1.853-1.812-2.816-0.328-0.512-0.635-0.983-0.983-1.495-0.86-1.362-1.782-2.806-2.744-4.332-0.123-0.195-0.225-0.348-0.348-0.532-1.137-1.812-2.345-3.717-3.645-5.755-11.581-18.248-41.953-64.707-41.953-64.707l-4.086-197.571c0-0.502 0.020-0.963 0.020-1.464-0.082-16.476 4.096-28.14 21.279-28.477l72.97-3.318 35.001-0.717 73.042 4.045c1.372-0.041 2.519 0.082 3.717 0.174 0.901 0.051 1.843 0.072 2.662 0.195 0.973 0.123 1.802 0.369 2.673 0.584 0.707 0.195 1.485 0.317 2.109 0.543 0.799 0.276 1.454 0.676 2.14 1.065 0.553 0.287 1.157 0.543 1.638 0.881 0.635 0.44 1.126 1.024 1.659 1.536 0.399 0.41 0.881 0.758 1.239 1.219 0.481 0.604 0.84 1.341 1.229 2.038 0.276 0.512 0.635 0.963 0.87 1.516 0.348 0.799 0.604 1.72 0.86 2.621 0.184 0.594 0.399 1.106 0.563 1.741 0.236 1.065 0.379 2.273 0.553 3.441 0.082 0.604 0.215 1.116 0.266 1.741 0.195 1.874 0.276 3.86 0.338 6.001l4.076 197.581c0.009-0.034-28.366 47.643-39.169 66.342zM303.8 346.327c10.711 0 19.384-8.673 19.384-19.374s-8.673-19.374-19.384-19.374c-10.691 0-19.384 8.673-19.384 19.374 0 10.711 8.694 19.374 19.384 19.374zM354.816 126.044l-47.862 21.975-45.22-26.993 6.083 52.285-39.608 34.673 51.61 10.373 20.716 48.394 25.815-45.865 52.419-4.751-35.635-38.707 11.682-51.384z" />
<glyph unicode="&#xe00d;" d="M256 396.79c-66.826 0-121.006-54.18-121.006-121.016 0-30.157 13.619-56.955 28.385-80.691 26.644-42.813 77.875-133.274 82.524-138.353 7.567-8.294 18.565-7.434 25.989 3.707 8.151 12.237 46.551 81.633 61.266 106.998 5.437 9.4 10.916 18.76 16.036 28.334 13.025 24.402 27.802 50.186 27.802 80.015 0 66.826-54.18 121.006-120.996 121.006zM256 212.664c-36.905 0-66.816 29.911-66.816 66.816s29.921 66.826 66.816 66.826c36.905 0 66.816-29.921 66.816-66.826s-29.911-66.816-66.816-66.816z" />
<glyph unicode="&#xe00e;" d="M242.668 375.491c-11.971 0-150.886-23.235-150.886-23.235l-51.159-92.232c0 0-3.523-7.741 10.557-7.741h151.357c0 0 9.861 2.109 13.384 13.373 3.523 11.274 35.901 99.973 35.901 99.973s2.816 9.862-9.154 9.862zM204.319 238.397l-0.881-0.195-115.876 0.001v-116.173c0-9.318 7.547-16.886 16.886-16.886l143.145-32.645v245.545c-6.922-27.034-18.627-56.105-20.664-62.587-3.922-12.605-17.173-15.882-22.61-17.060zM471.378 260.035l-51.159 92.232c0 0-138.916 23.235-150.897 23.235-11.96 0-9.144-9.861-9.144-9.861s32.379-88.699 35.901-99.973c3.523-11.264 13.384-13.373 13.384-13.373h151.357c14.080-0.002 10.558 7.74 10.558 7.74zM283.617 260.741c-2.017 6.451-9.585 30.74-19.128 57.047v-245.279l143.145 32.645c9.318 0 16.886 7.557 16.886 16.886v116.214l-119.439-0.399c-5.438 1.177-17.521 10.27-21.464 22.886z" />
<glyph unicode="&#xe00f;" d="M365.937 377.6h-219.884c-12.36 0-22.405-10.547-22.405-23.583v-260.035c0-13.036 10.035-23.583 22.405-23.583h219.884c12.38 0 22.405 10.537 22.405 23.583v260.035c0.010 13.036-10.025 23.583-22.405 23.583zM199.281 103.424h-32.707v35.379h32.707v-35.379zM199.281 172.001h-32.707v35.389h32.707v-35.389zM199.281 240.609h-32.707v35.389h32.707v-35.389zM199.281 309.207h-32.707v35.379h32.707v-35.379zM304.691 103.424h-72.704v35.379h72.704v-35.379zM348.303 172.001h-116.316v35.389h116.316v-35.389zM348.303 240.609h-116.316v35.389h116.316v-35.389zM348.303 309.207h-116.316v35.379h116.316v-35.379z" />
<glyph unicode="&#xe010;" d="M264.837 420.116c-48.046 0-86.999-38.963-86.999-87.020 0-48.036 38.953-87.009 86.999-87.009 48.056 0 87.020 38.973 87.020 87.009 0 48.057-38.953 87.020-87.020 87.020zM278.835 293.304l0.543-14.029-21.258-0.84-0.563 14.295c-10.025 1.382-19.354 5.161-26.798 11.315l11.837 15.247c8.151-6.001 17.111-9.001 26.409-8.643 5.98 0.236 9.103 2.396 8.98 5.837l-0.020 0.256c-0.113 3.297-2.816 5.048-13.834 7.178-17.244 3.236-30.618 7.537-31.242 24.084v0.215c-0.461 12.585 7.557 22.467 21.627 25.723l-0.471 12.749 21.258 0.809 0.481-12.974c8.52-1.229 15.483-4.188 21.821-8.817l-10.68-16.138c-7.619 4.874-15.862 7.332-23.081 7.055-5.437-0.215-8.018-2.621-7.916-5.499l0.010-0.215c0.133-3.666 2.99-5.161 14.346-7.27 18.862-3.277 30.679-8.837 31.242-23.839l0.031-0.246c0.523-13.801-8.109-23.15-22.722-26.253zM421.13 235.377c-0.266 0.174-0.266 0.573 0 0.758 6.021 4.147 9.81 11.254 9.39 19.098-0.635 11.991-10.916 21.187-22.897 20.531-12.001-0.655-21.197-10.906-20.541-22.917 0.184-2.939 0.942-5.714 2.13-8.212 0.174-0.348-0.051-0.809-0.451-0.819l-7.7-0.42c-7.465 11.653-17.715 22.159-30.71 30.781-19.21-26.45-50.309-43.704-85.514-43.704-37.888 0-71.035 20.009-89.702 49.961-6.441-4.157-11.663-7.731-12.657-8.458-1.423-1.044 1.516 0.819 0.143-0.297-12.677 7.465-26.184 10.138-45.804 8.090-10.24-1.085-10.127-6.113-1.731-16.097 7.649-9.114 15.268-20.357 20.92-32.143-5.171-14.254-9.81-20.050-12.841-29.327l-1.444-1.157c-3.195-2.591-19.18-16.23-23.245-15.503l-10.742 0.655c-1.495 0.256-3.082-0.123-4.291-1.065-1.198-0.973-1.935-2.345-2.048-3.891l-2.137-33.416c-0.092-1.485 0.42-2.939 1.444-4.035 1.024-1.065 2.427-1.7 3.922-1.71h2.703c1.864-0.020 21.084-1.178 27.525-6.636 5.345-18.78 30.351-53.125 62.996-67.195l1.556-37.048c0.256-1.905 1.905-3.318 3.82-3.318h44.36c1.925 0 3.574 1.423 3.84 3.318l2.857 26.747c24.381-1.669 46.582-1.792 70.523-0.952l1.823-25.805c0.256-1.905 1.915-3.318 3.82-3.318h44.636c1.925 0 3.564 1.423 3.82 3.318l4.495 60.611c23.060 22.938 37.1 49.377 37.1 82.77 0 13.937-2.468 27.331-7.004 39.916-0.532 2.12-1.116 4.26-1.823 6.359 4.157 1.137 8.192 2.519 11.028 4.055 0.481 0.266 0.522 0.328 1.065 0.317 10.168-0.369 22.057-17.193 22.815-23.071 0.102-0.727 0.901-1.147 1.495-0.748 3.441 2.171 4.659 5.192 4.659 13.138 0.030 10.486-8.377 18.811-11.603 20.839zM415.58 251.3c-1.884-2.673-4.557-3.83-7.619-5.437-0.922-0.481-3.758 0.942-5.202 2.652-0.799 0.963-1.096 2.222-1.178 3.523-0.215 3.881 2.765 7.188 6.615 7.404 2.202 0.123 4.137-0.829 5.54-2.304 1.967-1.988 2.428-4.988 1.844-5.838z" />
<glyph unicode="&#xe011;" d="M358.441 229.908c0 0-91.576 69.335-93.071 70.185-2.775 1.597-5.939 2.58-9.38 2.58-3.41 0-6.595-0.983-9.359-2.58-1.495-0.86-93.071-70.185-93.071-70.185-14.408-10.322-17.541-13.691-17.541-21.197v-119.173c0-7.496 6.093-13.578 13.588-13.578h212.797c7.496 0 13.568 6.072 13.568 13.578v119.174c-0.010 7.495-3.134 10.864-17.531 21.196zM423.864 253.030l-0.952 0.953c-4.27 4.106-10.271 8.632-17.828 14.060-9.564 7.24-19.415 14.705-29.256 22.149v70.359c0 3.748-3.041 6.789-6.789 6.789h-41.871c-3.748 0-6.789-3.041-6.789-6.789v-28.457c-26.778 20.204-46.295 34.867-47.35 35.471-2.796 1.618-5.755 2.826-8.745 3.594v0.41l-3.666 0.246c-1.505 0.205-3.011 0.256-4.526 0.215-1.556 0.051-3.103-0.020-4.659-0.215l-3.666-0.246v-0.41c-3-0.768-5.949-1.966-8.745-3.584-2.038-1.167-72.95-54.774-131.942-99.43-7.69-5.53-13.701-10.045-18.012-14.213l-0.901-0.901c-3.195-3.43-4.936-7.875-4.936-12.513 0-4.68 1.782-9.155 4.997-12.585 3.533-3.779 8.315-5.857 13.435-5.857 4.741 0 9.216 1.782 12.646 5.028 35.686 26.993 127.969 96.717 131.492 99.154 2.048 1.178 4.198 1.976 6.369 2.396l3.502 0.276c0.215 0 0.451 0.020 0.666 0l3.697-0.297c2.079-0.399 4.086-1.157 5.868-2.171 3.86-2.642 96.154-72.366 131.82-99.359 3.441-3.236 7.905-5.028 12.657-5.028 5.13 0 9.902 2.079 13.435 5.857 3.215 3.441 4.997 7.905 4.997 12.585-0.012 4.639-1.763 9.083-4.948 12.513z" />
<glyph unicode="&#xe012;" d="M209.357 175.176v19.712c0 14.961 3.052 27.617 9.175 37.929 6.113 10.312 16.957 20.357 32.543 30.136 12.38 7.793 21.289 14.817 26.696 21.084s8.131 13.445 8.131 21.545c0 6.41-2.898 11.5-8.704 15.237-5.806 3.738-13.384 5.612-22.692 5.612-23.071 0-50.043-8.172-80.896-24.525l-31.857 62.341c38.042 21.699 77.773 32.543 119.183 32.543 34.068 0 60.805-7.485 80.21-22.456 19.415-14.971 29.123-35.369 29.123-61.194 0-18.483-4.321-34.488-12.964-48.005s-22.415-26.327-41.359-38.39c-16.046-10.394-26.102-17.981-30.136-22.804-4.055-4.823-6.083-10.496-6.083-17.070v-11.694l-70.37-0.001zM199.506 94.976c0 14.039 4.086 24.904 12.257 32.543 8.172 7.639 20.204 11.459 36.096 11.459 15.278 0 27.003-3.86 35.185-11.581s12.268-18.534 12.268-32.42c0-13.906-4.25-24.678-12.708-32.317-8.479-7.639-20.060-11.459-34.734-11.459-15.124 0-26.962 3.779-35.523 11.336-8.571 7.587-12.841 18.359-12.841 32.439z" />
<glyph unicode="&#xe013;" d="M185.897 245.135l180.029 1.126-4.454 46.899c-0.768 8.1-7.946 14.029-16.026 13.271l-72.643-6.892c23.142 12.687 44.462 31.16 42.742 55.726-0.942 13.548-7.066 25.149-17.213 32.614-9.769 7.178-22.467 9.636-34.806 6.717-0.635-0.143-1.239-0.297-1.864-0.461-23.142-6.236-39.567-25.743-47.657-54.866-13.885 26.86-33.956 42.568-57.887 43.95-0.625 0.041-1.27 0.061-1.915 0.082-12.677 0.328-24.596-4.68-32.686-13.701-8.397-9.39-12.022-21.975-10.179-35.451 3.236-23.665 26.511-37.274 50.954-45.087l-65.802-6.236c-8.090-0.778-14.019-7.967-13.251-16.036l13.887-146.419c0.768-8.090 7.936-14.019 16.026-13.251l42.373 4.024-0.645 102.656c-0.061 17.163 13.834 31.233 31.017 31.335zM268.268 369.684c0.348 0.092 0.727 0.174 1.085 0.256 5.161 1.229 10.127 0.348 13.947-2.468 4.065-2.99 6.554-7.956 6.973-13.988 1.065-15.217-25.201-32.133-55.828-43.53 2.181 23.532 9.789 53.238 33.823 59.73zM136.468 337.572c-0.809 5.99 0.584 11.356 3.953 15.114 3.174 3.543 7.834 5.417 13.158 5.284 0.379-0.020 0.748-0.020 1.106-0.041 24.863-1.434 38.39-28.948 45.332-51.538-32.306 4.895-61.48 16.067-63.549 31.181zM428.585 101.591h-256.512l0.215-34.785c0-1.014 0.113-1.997 0.317-2.959 0.072-0.307 0.215-0.625 0.297-0.942 0.174-0.614 0.328-1.219 0.573-1.812 0.174-0.399 0.41-0.748 0.614-1.106 0.246-0.461 0.461-0.942 0.758-1.362 0.246-0.379 0.563-0.676 0.85-1.024 0.317-0.389 0.604-0.799 0.952-1.137 0.307-0.317 0.666-0.553 1.004-0.84 0.389-0.317 0.758-0.666 1.178-0.963 0.358-0.236 0.768-0.41 1.137-0.625 0.451-0.236 0.881-0.522 1.362-0.717 0.41-0.184 0.85-0.256 1.28-0.389 0.492-0.154 0.963-0.348 1.485-0.451 0.451-0.092 0.922-0.092 1.382-0.143 0.532-0.061 1.055-0.164 1.618-0.164l227.082 1.546c8.12 0.061 14.664 6.666 14.612 14.807l-0.204 33.066zM427.889 215.624c0 1.024-0.133 2.007-0.317 2.959-0.082 0.389-0.225 0.748-0.348 1.126-0.174 0.543-0.297 1.096-0.522 1.628-0.184 0.389-0.42 0.737-0.625 1.106-0.236 0.461-0.461 0.942-0.737 1.372-0.236 0.369-0.584 0.676-0.85 1.024-0.317 0.379-0.614 0.788-0.952 1.147-0.307 0.297-0.666 0.532-1.004 0.809-0.399 0.328-0.758 0.676-1.198 0.973-0.338 0.236-0.737 0.41-1.116 0.604-0.451 0.256-0.881 0.532-1.382 0.737-0.399 0.164-0.84 0.246-1.239 0.389-0.502 0.164-0.983 0.358-1.505 0.451-0.44 0.092-0.922 0.092-1.382 0.143-0.532 0.051-1.055 0.154-1.608 0.154l-45.599-0.43-181.494-1.137c-8.131-0.051-14.664-6.687-14.612-14.807l0.532-84.849h256.512l-0.554 86.601z" />
<glyph unicode="&#xe014;" d="M256 380.15c27.392 0 50.176-26.665 54.856-61.655h16.732c-5.11 44.206-35.216 78.305-71.588 78.305-36.362 0-66.478-34.099-71.588-78.295h16.732c4.68 34.99 27.474 61.645 54.856 61.645zM359.516 303.258c0 8.417-6.84 15.237-15.237 15.237h-48.978c-4.516-17.51-20.378-30.474-39.301-30.474-18.924 0-34.785 12.954-39.301 30.474h-50.207c-8.417 0-15.237-6.82-15.237-15.237l-15.237-236.82c0-8.417 6.83-15.237 15.237-15.237l209.5-0.001c8.407 0 15.227 6.83 15.227 15.237l-16.466 236.821z" />
<glyph unicode="&#xe016;" d="M319.017 158.792l-65.782 65.812 66.335 65.393-29.993 30.003-97.147-97.147 94.874-94.853z" />
<glyph unicode="&#xe018;" d="M192.973 289.208l65.792-65.812-66.335-65.393 29.993-30.003 97.147 97.147-94.874 94.853z" />
<glyph unicode="&#xe01a;" d="M190.792 160.983l65.812 65.772 65.393-66.325 30.003 29.993-97.147 97.147-94.853-94.894z" />
<glyph unicode="&#xe01c;" d="M373.504 348.826h-235.008c-9.615 0-17.408-7.793-17.408-17.408v-140.698c0-9.615 7.793-17.408 17.408-17.408h39.301l19.528-61.962c2.273-7.24 9.001-12.165 16.599-12.165s14.326 4.925 16.599 12.165l19.517 61.962h123.464c9.615 0 17.408 7.793 17.408 17.408v140.708c0 9.605-7.782 17.398-17.408 17.398zM356.096 208.118h-118.835c-0.031 0-0.061-0.010-0.102-0.010h-46.479c-0.031 0-0.061 0.010-0.102 0.010h-34.683l-0.001 105.902h200.182v-105.902h0.020z" />
<glyph unicode="&#xe01d;" d="M384.85 164.424l32.635 104.427c1.679 5.284 0.696 11.039-2.58 15.503-3.267 4.465-8.479 7.096-14.019 7.096l-240.19 0.001-17.398 55.276c-2.284 7.25-9.001 12.175-16.599 12.175h-56.575c-9.615 0-17.408-7.793-17.408-17.408s7.793-17.408 17.408-17.408h43.807l70.154-222.822c2.273-7.24 9.001-12.175 16.599-12.175h182.784c9.605 0 17.408 7.782 17.408 17.398 0 9.626-7.782 17.418-17.408 17.418l-170.015-0.001-8.909 28.283h163.686c7.619-0.010 14.347 4.956 16.62 12.237zM193.587 187.023l-21.924 69.622h205.527l-21.76-69.622h-161.843z" />
<glyph unicode="&#xe01e;" d="M369.51 371.937c-4.065 0-10.127-1.28-15.729-7.363-39.004-42.301-88.842-57.313-119.665-57.313h-84.777c-14.725 0-26.706-11.981-26.706-26.726v-66.232c0-14.725 11.981-26.696 26.706-26.696h2.621l23.491-98.181c1.065-4.485 3.891-8.376 7.823-10.783 2.775-1.7 5.919-2.58 9.114-2.58 1.341 0 2.703 0.164 4.045 0.481l44.749 10.701c9.349 2.253 15.114 11.643 12.872 20.982l-18.975 79.319c30.863-0.287 80.015-15.36 118.712-57.262 5.612-6.083 11.653-7.363 15.729-7.363 9.871 0 19.855 7.711 19.855 22.436l0.001 204.134c-0.020 14.746-9.994 22.446-19.866 22.446zM157.45 272.445h59.269v-50.033h-59.269v50.033zM354.55 176.916c-30.853 24.525-67.574 40.376-103.025 44.411v52.214c35.492 4.014 72.172 19.866 103.025 44.38v-141.005z" />
<glyph unicode="&#xe01f;" d="M128 328.745h256v-38.287h-256zM128 243.139h256v-38.288h-256zM128 157.542h256v-38.277h-256z" />
<glyph unicode="&#xe020;" d="M176.998 203.889h143.462c41.349 0 74.988-32.881 74.988-73.308v-74.824h-293.448v74.824c0.001 40.427 33.639 73.308 74.998 73.308zM246.344 226.939c-46.664 0-84.623 37.079-84.623 82.657 0 45.568 37.96 82.637 84.623 82.637 46.653 0 84.593-37.069 84.593-82.637-0.011-45.578-37.95-82.657-84.593-82.657z" />
<glyph unicode="&#xe022;" d="M321.198 287.027l-65.812-65.782-65.383 66.325-30.003-29.993 97.147-97.147 94.853 94.884z" />
<glyph unicode="&#xe023;" d="M256.010 430.776c-114.196 0-206.776-92.58-206.776-206.776s92.58-206.776 206.776-206.776c52.48 0 100.28 19.732 136.724 51.948 10.701 6.093 17.275 14.408 21.084 21.402 30.495 36.024 48.957 82.555 48.957 133.427 0.001 114.195-92.579 206.775-206.765 206.775zM256.010 36.383c-59.75 0-112.947 28.18-147.333 71.823l4.239-3.82c2.12 2.324 53.309 55.89 159.795-10.424 29.727-18.493 55.675-29.061 77.711-31.805-27.749-16.292-59.975-25.774-94.412-25.774zM236.104 281.887h32.553l10.127-26.327 6.472-32.502v-70.81h-63.58v71.096l4.434 32.471 9.994 26.072zM227.994 301.036v47.309h19.087v-47.309h-19.087zM259.85 301.036v47.309h18.698v-47.309h-18.698zM311.716 122.266c11.121-8.489 14.735-23.357 15.78-34.693-12.524 4.639-27.29 11.827-44.667 22.63-8.776 5.448-17.172 10.086-25.283 14.121 24.095 7.301 42.742 6.687 54.17-2.058zM402.248 106.752l-2.028 0.451c0-0.072-0.563-2.222-1.956-5.181-5.284-6.164-11.018-11.95-17.060-17.367-0.522-0.266-0.942-0.563-1.495-0.788-7.178-3.041-17.715-4.69-32.676-1.853-0.369 14.991-4.137 40.509-23.624 55.45-5.54 4.239-11.95 7.137-19.016 8.95l0.001 77.586-7.014 36.086-8.305 21.801h7.916v19.159h-5.683v47.309h5.683v21.524l-43.53 10.854-43.53-10.854v-21.524h5.284v-47.309h-5.284v-19.159h5.642l-7.772-20.224-5.202-36.372-0.072-81.684c-60.119 11.274-93.932-16.732-101.99-24.515-20.275 29.972-32.154 66.079-32.154 104.919 0 103.455 84.173 187.617 187.617 187.617s187.587-84.142 187.587-187.617c0.010-44.36-15.524-85.105-41.339-117.259zM263.045 232.684h-19.159v16.804h19.159v-16.804zM256.113 173.343h-19.159v27.453h19.159v-27.453z" />
<glyph unicode="&#xe024;" d="M255.58 175.319c22.528 0 40.786-18.258 40.786-40.786 0-22.518-18.258-40.786-40.786-40.786-22.518 0-40.786 18.268-40.786 40.786 0 22.528 18.268 40.786 40.786 40.786zM400.937 305.039c-0.102 0.072-0.195 0.143-0.276 0.215-40.161 30.7-90.276 48.998-144.62 48.998-54.825 0-105.38-18.616-145.715-49.828-4.485-3.461-8.806-7.107-13.025-10.875l2.396-25.16c1.833-1.628 3.482-3.154 4.332-4.014 3.41-3.4 6.554-4.516 10.578-1.659 0.645 0.461 1.311 1.004 2.007 1.679 0.123 0.113 0.225 0.184 0.358 0.307l0.43 0.43c36.424 33.792 85.156 54.497 138.639 54.497 44.79 0 86.221-14.52 119.91-39.086 5.14-3.748 10.127-7.721 14.899-11.93 0.758-0.666 1.475-1.311 2.14-1.915 1.096-1.014 2.058-1.915 2.632-2.488 4.045-4.045 7.69-4.946 12.943 0.328l7.014 7.014-4.403 25.139c-3.348 2.86-6.747 5.665-10.239 8.348zM319.273 223.601c-0.031 0.020-0.072 0.041-0.113 0.061-18.555 10.875-40.11 17.152-63.119 17.152-22.845 0-44.411-5.949-62.71-16.937-0.563-0.338-1.147-0.635-1.7-0.973-8.387-5.243-15.165-10.988-19.63-15.145-4.372-4.69-3.512-8.192 0.225-12.063 0.84-0.87 2.365-2.58 3.983-4.465l1.976-2.058c0.369-0.328 0.768-0.625 1.126-0.942 2.017-1.772 3.85-3.482 4.772-4.403 0.502-0.502 1.004-0.952 1.485-1.341 2.898-2.345 5.734-2.796 9.236-0.246 0.573 0.522 1.157 1.034 1.731 1.536 0.348 0.307 0.696 0.625 1.055 0.922 15.79 13.373 36.178 21.473 58.44 21.473 20.572 0 39.537-6.922 54.764-18.534 1.403-1.065 2.775-2.15 4.106-3.297 0.686-0.594 1.362-1.208 2.028-1.823 0.215-0.195 0.44-0.379 0.635-0.573 2.458-1.741 4.905-2.079 7.803-0.297l12.995 12.698c0.246 0.266 0.512 0.522 0.758 0.788 4.925 4.987 4.055 8.581 0.154 12.585-0.841 0.901-14.798 12.83-20 15.882zM376.259 252.774c0 0-11.151 9.708-15.084 12.483-0.051 0.041-0.102 0.072-0.154 0.113-29.737 20.92-65.946 33.239-104.991 33.239-38.799 0-74.691-12.339-104.417-32.891-0.43-0.297-0.881-0.584-1.321-0.891-8.571-6.042-15.995-12.913-20.47-17.357-2.56-3.41-2.171-6.216 0.072-9.124 5.222-5.038 13.097-12.626 13.711-13.24 3.308-3.308 6.369-4.444 10.24-1.874 0.164 0.092 0.307 0.164 0.461 0.287 0.717 0.522 1.464 1.126 2.232 1.915l1.024 1.024c26.225 23.327 60.703 37.55 98.468 37.55 36.137 0 69.284-13.015 95.048-34.57 1.137-0.952 2.212-1.987 3.318-2.97 0.778-0.727 1.454-1.352 1.894-1.802 0.717-0.717 1.434-1.3 2.14-1.802 2.724-1.935 5.417-2.15 8.745 0.328l14.746 14.756c2.755 3.912 1.659 7.025-1.659 10.414-0.839 0.839-2.375 2.528-4.003 4.412zM97.28 293.673l-1.72-1.7-2.202-2.161c-3.871-3.809-4.209-9.82-1.055-14.060l7.332-7.332c0.020-0.010 0.041-0.031 0.061-0.051l-2.396 25.16-0.020 0.144zM420.055 288.369c-0.604 0.625-1.495 1.587-2.499 2.734-2.089 1.915-4.239 3.758-6.39 5.591l4.393-25.139 2.15 2.15 1.495 1.731c3.268 3.706 3.432 9 0.851 12.933z" />
<glyph unicode="&#xe025;" d="M291.523 255.785l4.997 60.928c26.399-1.741 43.93 22.262 43.448 44.001-0.696 23.777-18.688 42.813-43.674 42.25-24.904-0.717-41.421-22.999-40.858-44.421l2.437-95.683-6.257-217.825c0.225-0.010 0.461-0.072 0.686-0.010 20.961 5.56 30.024 24.689 29.051 34.028l1.864 24.832 9.226 113.879 123.72-56.75c9.247-3.174 26.634 1.382 33.987 13.752l-158.627 81.019zM276.521 359.301c-0.287 11.786 8.98 21.535 20.726 21.821 11.704 0.307 21.443-8.95 21.832-20.726 0.205-11.663-9.052-21.412-20.746-21.637-11.756-0.388-21.505 8.889-21.812 20.542zM109.373 294.267c-11.54 6.349-30.116 10.967-40.325 7.148-12.165-4.547-7.393-19.712 2.877-19.671 9.503 0.133 16.353 2.867 31.119-8.684-0.788-16.527 8.151-31.14 23.501-38.953 20.859-10.68 52.695-3.338 60.57 25.457 0.123 0.461 0.215 0.942 0.317 1.413l51.886-21.658 0.154 32.010-73.923 38.707c-21.411 10.906-45.864 2.243-56.176-15.769zM164.526 262.083c-5.315-10.547-18.104-14.684-28.467-9.359-10.506 5.345-14.664 18.135-9.267 28.641 5.284 10.383 18.084 14.52 28.549 9.103 10.424-5.243 14.561-18.043 9.185-28.385z" />
<glyph unicode="&#xe026;" d="M160.952 279.47v0h-41.451l27.31 67.174c5.202 13.507 16.374 25.006 37.407 25.098h143.595c21.135-0.092 32.307-11.592 37.417-25.098l27.31-67.174h-41.38l-0.195 0.614h0.031l-0.307 0.84-20.306 44.718c-2.601 7.895-6.482 10.199-15.452 10.332h-117.596c-9.114-0.133-12.974-2.437-15.462-10.332l-20.613-45.558-0.308-0.614zM351.15 276.142l-0.195 0.614zM339.282 102.615c0.113-34.929 56.801-35.359 56.832 0v28.682h-56.832v-28.682zM116.132 102.615c-0.072-35.359 56.627-34.929 56.607 0v28.682h-56.607v-28.682zM126.188 259.42l0.020 0.051h-16.251c-7.629 0-13.824-6.195-13.824-13.824l-4.608-82.842h0.041l4.608 58.307c-0.020 24.167 19.169 36.916 30.014 38.308zM415.898 245.658c0 7.639-6.195 13.824-13.824 13.824h-16.261l0.020-0.051c10.854-1.393 30.054-14.152 30.024-38.308l4.608-58.307h0.041l-4.608 82.842zM385.823 259.42c10.854-1.403 30.054-14.152 30.024-38.308l4.608-58.307v-11.52l-328.889 0.001v11.52l4.608 58.307c-0.031 24.156 19.169 36.905 30.013 38.308l0.031 0.051 259.605-0.052zM150.149 179.302c14.008 0 25.344 11.346 25.344 25.344s-11.336 25.344-25.344 25.344c-13.998 0-25.344-11.346-25.344-25.344s11.346-25.344 25.344-25.344zM369.807 179.302c13.998 0 25.344 11.346 25.344 25.344s-11.346 25.344-25.344 25.344c-14.008 0-25.344-11.346-25.344-25.344s11.336-25.344 25.344-25.344z" />
<glyph unicode="&#xe027;" d="M271.524 78.735c0-12.892-26.982-23.337-60.262-23.337s-60.262 10.455-60.262 23.337c0 10.701 18.657 19.702 44.063 22.436l-0.001 291.431h34.038v-291.584c24.565-2.939 42.424-11.797 42.424-22.283zM120.535 157.204c-13.916 0-25.221-11.284-25.221-25.211 0-13.906 11.305-25.201 25.221-25.201s25.201 11.295 25.201 25.201c0 13.927-11.275 25.211-25.201 25.211zM362.363 342.661c-45.558 6.564-113.469 49.94-113.469 49.94l-0.236-147.978 5.827 9.841c5.827 9.841 32.809 25.518 97.321 34.99 64.502 9.472 64.881 58.307 64.881 58.307s-8.756-11.664-54.324-5.1z" />
<glyph unicode="&#xe028;" d="M404.869 334.316c0 0.020 0 0.031 0 0.051v12.995c0 7.639-6.195 13.824-13.834 13.824l-270.080-0.001c-7.639 0-13.834-6.185-13.834-13.824v-172.554c0-7.629 6.195-13.824 13.824-13.824h111.647v-36.628c-53.125-1.915-92.846-9.472-92.846-18.524 0-10.486 53.32-19.005 119.091-19.005 65.761 0 119.081 8.52 119.081 19.005 0 9.247-41.503 16.947-96.41 18.647v36.495h109.507c7.639 0 13.834 6.185 13.834 13.824v159.519zM142.541 193.935c-1.352 0-2.447 1.096-2.447 2.437l-0.001 129.403c0 1.341 1.096 2.437 2.447 2.437h226.918c1.341 0 2.437-1.096 2.437-2.437v-129.403c0-1.341-1.096-2.437-2.437-2.437h-226.917z" />
<glyph unicode="&#xe029;" d="M309.801 308.132v88.811c0 0.287-0.072 0.563-0.082 0.85v3.011c0 8.489-6.871 15.36-15.36 15.36h-76.821c-8.489 0-15.36-6.871-15.36-15.36v-83.2h0.010v-9.472c-27.709-17.777-46.121-48.845-46.121-84.142 0-35.287 18.412-66.355 46.121-84.132v-9.462h-0.010v-83.2c0-8.489 6.871-15.36 15.36-15.36h76.81c8.489 0 15.36 6.871 15.36 15.36v2.97c0.010 0.307 0.092 0.594 0.092 0.891v88.801c27.709 17.777 46.121 48.845 46.121 84.132 0.001 35.307-18.411 66.365-46.12 84.142zM309.801 158.822c-14.633-12.104-33.382-19.384-53.801-19.384s-39.178 7.281-53.801 19.384c-18.77 15.524-30.751 38.984-30.751 65.167 0 26.214 11.981 49.654 30.751 65.178 14.633 12.104 33.382 19.384 53.801 19.384s39.178-7.281 53.801-19.384c18.77-15.524 30.74-38.963 30.74-65.178 0.011-26.183-11.97-49.643-30.74-65.167zM315.259 256.666c0-2.58-1.28-4.844-3.226-6.236v-0.010l-53.811-38.421c-1.26-0.891-2.785-1.444-4.454-1.444-1.966 0-3.738 0.768-5.1 1.966l-0.010-0.031-34.591 30.751 0.020 0.020c-1.577 1.403-2.601 3.441-2.601 5.734 0 4.239 3.441 7.68 7.68 7.68 1.966 0 3.738-0.758 5.089-1.956l0.021 0.001 30.013-26.665 48.814 34.857c1.27 0.901 2.796 1.444 4.465 1.444 4.24 0 7.691-3.441 7.691-7.69z" />
<glyph unicode="&#xe02a;" d="M351.98 345.958c0.502 13.24-4.198 25.119-13.24 33.423-8.714 7.987-20.736 11.715-33.014 10.189-0.635-0.061-1.229-0.164-1.853-0.256-23.081-3.615-41.052-20.756-51.968-48.138-10.609 27.494-28.385 44.831-51.436 48.701-0.614 0.102-1.229 0.195-1.843 0.276-12.247 1.659-24.32-1.925-33.116-9.83-9.134-8.212-13.957-20.029-13.609-33.27 1.198-43.356 73.523-60.273 95.662-64.42l8.079-0.051c22.179 3.923 94.668 20.030 96.338 63.376zM176.599 347.73c-0.164 5.888 1.761 10.936 5.417 14.234 3.451 3.082 8.172 4.413 13.312 3.717 0.358-0.051 0.717-0.102 1.065-0.164 23.921-4.004 34.14-32.102 38.482-54.712-30.771 8.151-57.877 22.056-58.276 36.925zM268.616 310.62c4.577 22.559 15.094 50.545 39.066 54.292 0.348 0.061 0.707 0.102 1.075 0.154 5.14 0.635 9.851-0.737 13.261-3.86 3.615-3.338 5.489-8.407 5.263-14.285-0.553-14.879-27.781-28.488-58.665-36.301zM401.101 252.037v-74.875h-133.581v88.709h119.747c7.628 0 13.834-6.195 13.834-13.834zM124.723 265.871h119.747v-88.709h-133.571v74.875c0 7.639 6.185 13.834 13.824 13.834zM133.939 154.122h110.531v-96.666l-96.707 0.001c-7.629 0-13.824 6.185-13.824 13.834v82.831zM267.51 154.122h110.531v-82.852c0-7.629-6.185-13.824-13.824-13.824h-96.707v96.676z" />
<glyph unicode="&#xe02b;" d="M256.123 190.126c28.262-0.399 43.018-18.678 40.919-46.305-3-38.799-6.472-79.309 19.374-79.309 21.842 0 33.065 27.576 39.537 75.356 6.257 47.299-0.369 52.92 2.888 73.923 6.205 39.793 44.534 68.301 33.802 119.040-5.939 28.15-32.195 41.38-47.544 46.95-35.369 12.872-51.036-11.93-88.996-11.93-37.98 0-53.647 24.801-89.027 11.93-15.34-5.571-41.595-18.801-47.555-46.95-10.711-50.739 24.013-79.247 30.228-119.040 2.97-19.2-0.164-23.767 6.472-73.923 6.482-47.78 17.705-75.356 39.557-75.356 25.815 0 22.374 33.341 19.343 72.172-1.894 24.883 1.29 46.182 28.529 52.122 4.414 0.951 8.571 1.382 12.473 1.32z" />
<glyph unicode="&#xe02c;" d="M449.526 224.85l-0.307 2.99c-0.881 5.509-3.451 10.721-7.27 14.746-10.527 12.401-23.429 24.556-40.571 38.205-35.85 28.559-71.987 46.858-107.407 54.395-23.173 4.915-47.114 5.263-70.953 0.993-19.64-3.512-39.578-10.527-60.948-21.453-27.75-14.182-54.528-33.976-79.585-58.849-4.229-4.198-8.714-8.755-12.861-13.67-9.585-11.346-9.585-26.020 0-37.366 10.557-12.524 23.562-24.781 40.888-38.595 35.84-28.559 71.977-46.858 107.407-54.395 12.421-2.642 25.129-3.983 37.786-3.983h0.010c10.936 0 22.098 1.004 33.157 2.98 19.64 3.523 39.567 10.527 60.959 21.453 27.75 14.193 54.538 33.987 79.596 58.86 3.86 3.84 8.325 8.335 12.524 13.281 3.666 3.881 6.185 8.827 7.158 14.090l0.041 0.225c0.031 0.154 0.051 0.287 0.082 0.44l0.174 1.28c0.031 0.215 0.041 0.369 0.041 0.451l0.092 1.229c0.020 0.451 0.031 0.901 0.031 1.352-0.003 0.44-0.014 0.849-0.044 1.341zM420.362 223.334c-3.543-4.209-7.608-8.315-11.131-11.807-22.958-22.784-47.329-40.837-72.438-53.678-14.275-7.281-27.668-12.534-40.643-15.964-3.471-0.922-6.912-1.731-10.332-2.396-9.318-3.297-19.333-5.11-29.778-5.11-10.404 0-20.388 1.802-29.676 5.079-0.829 0.164-1.659 0.287-2.468 0.461-2.621 0.563-5.253 1.208-7.895 1.915-28.58 7.547-58.010 23.265-87.624 46.848-15.811 12.595-27.525 23.624-36.844 34.662-0.061 0.072-0.113 0.143-0.154 0.205 0.041 0.051 0.092 0.123 0.154 0.195 3.236 3.84 6.799 7.496 11.141 11.807 22.958 22.794 47.329 40.837 72.438 53.668 14.377 7.352 27.873 12.605 40.94 16.046 3.502 0.922 6.984 1.731 10.435 2.386 9.247 3.246 19.19 5.038 29.553 5.038 10.455 0 20.5-1.833 29.829-5.14 0.717-0.143 1.444-0.246 2.15-0.399 2.683-0.573 5.366-1.239 8.059-1.946 28.518-7.567 57.897-23.265 87.45-46.817 15.8-12.585 27.505-23.603 36.844-34.662l0.164-0.195-0.174-0.196zM296.069 305.193c-2.693 0.707-5.376 1.382-8.059 1.946-0.717 0.154-1.444 0.256-2.15 0.399-9.329 3.318-19.364 5.13-29.829 5.13-10.363 0-20.296-1.782-29.553-5.028-3.451-0.655-6.922-1.475-10.435-2.386-30.208-14.797-51.016-45.834-51.016-81.725 0-35.881 20.787-66.898 50.954-81.705 2.642-0.686 5.274-1.352 7.895-1.905 0.819-0.184 1.659-0.297 2.478-0.461 9.288-3.277 19.261-5.079 29.676-5.079 10.445 0 20.47 1.812 29.778 5.12 3.42 0.655 6.871 1.475 10.332 2.386 30.106 14.828 50.821 45.814 50.821 81.644 0.011 35.84-20.756 66.836-50.892 81.664zM289.034 225.167c-14.51 0-26.276 11.756-26.276 26.276 0 14.51 11.766 26.276 26.276 26.276 14.52 0 26.276-11.766 26.276-26.276s-11.755-26.276-26.276-26.276z" />
<glyph unicode="&#xe02d;" d="M428.902 176.384c-2.038 25.836-16.312 62.147-67.308 62.147 0 0-6.994 22.692-27.361 47.606-20.367 24.934-66.243 17.94-66.243 17.94v18.678c0 5.683-7.076 9.943-12.759 9.943h-163.634c-5.673 0-8.817-4.26-8.817-9.943v-163.645c0-5.683 3.144-11.612 8.817-11.612h31.826c-0.010 0.328-0.051 0.655-0.051 1.004 0 26.184 21.238 47.411 47.421 47.411 26.184 0 47.411-21.228 47.411-47.411 0-0.338-0.041-0.666-0.051-1.004h87.337c0 0.328-0.041 0.655-0.041 1.004 0 26.184 21.228 47.411 47.411 47.411 26.194 0 47.411-21.228 47.411-47.411 0-0.338-0.041-0.666-0.051-1.004h21.883c0.010-0.001 8.847 3.050 6.799 28.886zM274.268 238.531v40.489c0 0 31.222 6.748 45.302-14.172 14.438-21.453 16.425-26.317 16.425-26.317h-61.727zM204.298 148.5c0-18.34-14.858-33.198-33.198-33.198s-33.198 14.858-33.198 33.198c0 18.33 14.858 33.188 33.198 33.188s33.198-14.858 33.198-33.188zM387.338 148.5c0-18.34-14.858-33.198-33.198-33.198s-33.198 14.858-33.198 33.198c0 18.33 14.858 33.188 33.198 33.188s33.198-14.858 33.198-33.188z" />
<glyph unicode="&#xe02e;" d="M417.219 294.82l-89.62 15.37-10.26 29.87c0 0-1.188 15.36-15.36 15.36h-91.955c-14.172 0-15.36-15.36-15.36-15.36l-10.26-29.87-89.62-15.37c-8.479 0-15.36-6.871-15.36-15.36v-171.51c0-8.489 6.881-15.36 15.36-15.36h322.435c8.479 0 15.36 6.871 15.36 15.36v171.51c0 8.479-6.892 15.36-15.36 15.36zM256 107.049c-54.938 0-99.461 44.534-99.461 99.451 0 54.927 44.524 99.451 99.461 99.451 54.917 0 99.451-44.524 99.451-99.451 0-54.917-44.534-99.451-99.451-99.451zM329.277 206.51c0-40.479-32.799-73.288-73.277-73.288-40.468 0-73.277 32.809-73.277 73.288 0 40.468 32.809 73.277 73.277 73.277 40.479-0.010 73.277-32.808 73.277-73.277z" />
<glyph unicode="&#xe02f;" d="M382.044 396.421h-252.078c-8.479 0-15.36-6.881-15.36-15.36v-314.132c0-8.489 6.881-15.36 15.36-15.36h252.079c8.479 0 15.36 6.871 15.36 15.36v83.2l-0.001 107.95v122.982c0 8.479-6.881 15.36-15.36 15.36zM212.204 99.471c0-4.823-3.901-8.735-8.735-8.735h-35.369c-4.833 0-8.745 3.912-8.745 8.735v17.449c0 4.823 3.912 8.735 8.745 8.735h35.369c4.833 0 8.735-3.912 8.735-8.735v-17.449zM212.204 155.453c0-4.823-3.901-8.735-8.735-8.735h-35.369c-4.833 0-8.745 3.901-8.745 8.735v17.449c0 4.823 3.912 8.735 8.745 8.735h35.369c4.833 0 8.735-3.912 8.735-8.735v-17.449zM212.204 211.436c0-4.823-3.901-8.735-8.735-8.735h-35.369c-4.833 0-8.745 3.912-8.745 8.735v17.449c0 4.823 3.912 8.745 8.745 8.745h35.369c4.833 0 8.735-3.912 8.735-8.745v-17.449zM281.754 99.471c0-4.823-3.912-8.735-8.735-8.735h-35.379c-4.823 0-8.735 3.912-8.735 8.735v17.449c0 4.823 3.912 8.735 8.735 8.735h35.379c4.823 0 8.735-3.912 8.735-8.735v-17.449zM281.754 155.453c0-4.823-3.912-8.735-8.735-8.735h-35.379c-4.823 0-8.735 3.901-8.735 8.735v17.449c0 4.823 3.912 8.735 8.735 8.735h35.379c4.823 0 8.735-3.912 8.735-8.735v-17.449zM281.754 211.436c0-4.823-3.912-8.735-8.735-8.735h-35.379c-4.823 0-8.735 3.912-8.735 8.735v17.449c0 4.823 3.912 8.745 8.735 8.745h35.379c4.823 0 8.735-3.912 8.735-8.745v-17.449zM351.304 99.471c0-4.823-3.922-8.735-8.745-8.735h-35.379c-4.823 0-8.735 3.912-8.735 8.735v17.449c0 4.823 3.912 8.735 8.735 8.735h35.379c4.823 0 8.745-3.912 8.745-8.735v-17.449zM351.304 155.453c0-4.823-3.922-8.735-8.745-8.735h-35.379c-4.823 0-8.735 3.901-8.735 8.735v17.449c0 4.823 3.912 8.735 8.735 8.735h35.379c4.823 0 8.745-3.912 8.745-8.735v-17.449zM351.304 211.436c0-4.823-3.922-8.735-8.745-8.735h-35.379c-4.823 0-8.735 3.912-8.735 8.735v17.449c0 4.823 3.912 8.745 8.735 8.745h35.379c4.823 0 8.745-3.912 8.745-8.745v-17.449zM354.468 269.199c-0.010-1.741-1.434-3.174-3.185-3.174h-190.576c-1.761 0-3.185 1.434-3.185 3.185v81.1c0 1.761 1.423 3.185 3.185 3.185h190.577c1.751 0 3.185-1.423 3.185-3.185l-0.001-81.111z" />
<glyph unicode="&#xe030;" d="M178.176 321.28v46.357c0 4.045 3.287 7.332 7.322 7.332h8.96c4.035 0 7.322-3.287 7.322-7.332v-20.050l-0.001-26.307c0-4.045-3.287-7.322-7.322-7.322h-8.96c-4.024 0-7.321 3.277-7.321 7.322zM316.518 313.958h8.96c4.035 0 7.322 3.277 7.322 7.322v46.357c0 4.045-3.287 7.332-7.322 7.332l-8.96-0.001c-4.035 0-7.322-3.287-7.322-7.332v-20.050l0.001-26.306c0-4.045 3.287-7.322 7.321-7.322zM253.286 152.576c-11.786 0.041-22.958 4.332-32.973 12.36l-15.79-18.678c9.103-8.223 20.726-13.466 33.331-15.759l-0.041-20.941 26.962-0.143 0.041 20.664c18.657 3.123 30.075 14.561 30.147 32.041v0.287c0.092 19.036-14.612 26.675-38.298 31.867-14.264 3.256-17.787 5.304-17.766 9.974v0.296c0.010 3.625 3.41 6.533 10.332 6.502 9.134-0.051 19.425-3.574 28.826-10.179l14.377 19.876c-7.803 6.216-16.425 10.363-27.146 12.319v22.139l-26.962 0.123v-21.873c-17.961-3.369-28.672-15.483-28.744-31.396l-0.010-0.287c-0.102-20.92 16.609-27.105 38.257-32.164 13.814-3.236 17.142-5.591 17.121-9.8v-0.297c-0.010-4.371-4.096-6.972-11.664-6.931zM371.896 108.442c0-1.352-1.085-2.437-2.437-2.437h-92.324c-1.075-4.383-7.629-7.782-15.596-7.782h-19.354c-7.967 0-14.531 3.4-15.606 7.782l-84.038-0.001c-1.341 0-2.437 1.085-2.437 2.437v130.612h-32.973v-152.186c0-7.629 6.185-13.824 13.834-13.824h270.069c7.639 0 13.824 6.185 13.824 13.824l0.001 13.024v139.162h-32.963v-130.611zM391.045 347.587h-43.602v-26.307c0-12.114-9.851-21.975-21.965-21.975h-8.96c-12.114 0-21.975 9.871-21.975 21.975v26.307h-78.121v-26.307c0-12.114-9.851-21.975-21.975-21.975h-8.95c-12.114 0-21.975 9.871-21.975 21.975v26.307h-42.557c-7.639 0-13.824-6.185-13.824-13.824v-74.362h119.593c1.526 4.076 7.875 7.137 15.462 7.137h19.354c7.578 0 13.926-3.062 15.452-7.137h127.867v74.372c-0.010 7.629-6.195 13.814-13.824 13.814z" />
<glyph unicode="&#xe031;" d="M360.714 226.673c-13.568-26.266-38.81-50.975-59.095-70.82-15.903-15.565-29.635-29-31.887-37.458-0.461-1.731-0.952-3.922-1.516-6.451-4.639-20.787-15.493-69.468-63.396-69.53h-0.122c-20.623 0-38.124 7.209-50.586 20.838-12.442 13.599-18.545 32.86-16.763 52.849 2.038 22.804 14.531 42.813 26.747 42.813 2.693 0 6.625-1.014 10.107-5.857 6.564-9.144 1.167-17.582-4.035-25.743-6.584-10.312-13.384-20.972-3.338-36.833 9.615-15.176 21.688-22.241 38.021-22.241 26.604 0 33.638 25.62 38.779 44.339 1.72 6.246 3.195 11.643 5.181 15.247 3.891 7.076 12.605 16.835 23.634 29.184 27.105 30.321 68.055 76.155 70.472 122.757 1.454 28.109-6.564 52.879-22.589 69.755-14.438 15.206-35.052 23.245-59.628 23.245-2.304 0-4.639-0.072-7.035-0.205-62.31-3.615-73.4-55.572-75.274-77.742-0.584-6.861-0.246-14.172 0.051-20.623 0.522-11.438 0.942-20.47-3.297-24.914-1.628-1.71-3.789-2.57-6.42-2.57-3.348 0.113-5.929 1.997-8.131 5.601-8.745 14.295-11.878 58.501 1.884 87.962 14.234 30.484 43.295 66.806 100.721 65.28 55.040-1.587 82.135-28.314 95.181-50.442 24.023-40.777 19.353-95.469 2.334-128.441zM199.322 199.905c-6.769-11.315-4.076-26.593 5.775-32.512 23.552-14.152 50.586 18.299 53.279 56.484 2.294 32.492-40.827 45.445-38.216 69.939 2.263 21.166 20.931 34.509 42.455 29.123 21.535-5.376 34.365-36.096 23.112-61.522-5.151-11.653-14.367-22.129-6.595-25.62 7.66-3.441 20.685 17.039 24.269 35.912 4.465 23.48 0.983 44.431-18.442 58.798-35.758 26.44-79.616 5.427-86.313-35.082-7.107-42.947 33.116-39.096 20.992-68.321-3.707-8.931-15.708-19.498-20.316-27.199z" />
<glyph unicode="&#xe032;" d="M400.701 147.139c0 0.092-1.976 0.809-3.133 1.065-0.543 0.143-1.096 0.287-1.679 0.399-3.809 0.932-8.038 2.253-9.718 3.942-10.691 10.875-9.411 34.56-10.537 48.691-1.638 20.193-3.41 41.277-8.069 60.948-9.267 39.127-39.352 78.909-81.807 86.764 2.447 4.321 3.85 9.329 3.85 14.633 0 16.538-13.414 29.891-29.911 29.891-0.451 0-0.87-0.102-1.28-0.102h-0.123c-0.41 0-0.829 0.102-1.28 0.102-16.497 0-29.911-13.353-29.911-29.891 0-5.315 1.403-10.312 3.85-14.633-42.455-7.854-72.54-47.626-81.807-86.764-4.659-19.671-6.431-40.755-8.049-60.948-1.147-14.131 0.154-37.816-10.578-48.691-1.659-1.69-5.888-3-9.697-3.942-0.584-0.113-1.137-0.256-1.679-0.399-1.147-0.256-3.133-0.973-3.133-1.065-7.342-3.277-12.493-10.588-12.493-19.139 0-8.602 5.181-15.944 12.595-19.2 2.57-1.137 5.417-1.812 8.417-1.812h267.622c3 0 5.847 0.676 8.417 1.812 7.424 3.256 12.595 10.609 12.595 19.2 0.031 8.55-5.119 15.862-12.462 19.139zM345.928 147.917c-15.432 0.072-51.773 0.338-87.521 0.481h-0.113c-35.727-0.143-72.090-0.42-87.511-0.481-2.724-0.020-5.028-0.031-6.298-0.031 4.977 5.652 6.636 18.688 7.567 31.027 0.686 8.735 0.983 17.132 1.751 22.344 2.54 17.459 3.553 35.226 6.748 52.572 0.133 0.645 0.143 1.3 0.266 1.976 1.751 8.858 5.13 17.981 9.697 26.532 10.322 19.22 27.361 35.318 50.084 37.366 5.181 0.502 11.336 1.403 17.695 1.485h0.112c6.349-0.072 12.513-0.973 17.695-1.485 22.743-2.048 39.772-18.135 50.063-37.366 4.588-8.55 7.977-17.674 9.718-26.532 0.133-0.676 0.154-1.331 0.266-1.976 3.236-17.347 4.209-35.113 6.748-52.572 0.778-5.202 1.065-13.609 1.731-22.344 0.952-12.349 2.632-25.385 7.598-31.027-1.279-0.010-3.562 0.010-6.296 0.031zM219.822 90.696c7.004 0.41 22.804 0.666 38.543 0.758 15.729-0.092 31.529-0.348 38.533-0.758-0.184-3.348-0.543-6.656-1.536-9.759-2.294-7.158-6.646-13.394-12.39-18.012-6.502-5.243-14.776-8.387-23.777-8.387-0.266 0-0.543 0.051-0.788 0.072h-0.113c-0.246-0.020-0.481-0.072-0.768-0.072-9.001 0-17.285 3.154-23.798 8.387-5.724 4.628-10.076 10.854-12.38 18.012-1.004 3.103-1.372 6.41-1.526 9.759z" />
<glyph unicode="&#xe033;" d="M128 352h256v-42.67h-256zM128 138.67h256v-42.67h-256zM128 280.822h256v-42.67h-256zM128 209.848h256v-42.67h-256z" />
<glyph unicode="&#xe034;" d="M128 352h112.005v-112.005h-112.005zM128 208.005h112.005v-112.005h-112.005zM271.995 352h112.005v-112.005h-112.005zM271.995 208.005h112.005v-112.005h-112.005z" />
<glyph unicode="&#xe600;" d="M174.529 379.538h162.945c40.899 0 74.066-33.16 74.066-74.066v-162.945c0-40.899-33.167-74.066-74.066-74.066h-162.945c-40.906 0-74.066 33.167-74.066 74.066v162.945c0 40.906 33.16 74.066 74.066 74.066z" />
<glyph unicode="&#xe601;" d="M445.399 256.768l-1.075 1.075c-4.813 4.618-11.591 9.728-20.132 15.851-10.772 8.162-136.95 103.455-144.834 109.282-6.421 5.048-14.531 8.059-23.337 8.059-7.762 0-14.981-2.345-20.992-6.349-0.020 0.010-0.020 0.010-0.030 0.031-0.348-0.256-0.738-0.553-1.178-0.871-0.020-0.010-0.041-0.020-0.061-0.041-15.493-11.407-86.057-64.768-145.817-109.998-8.683-6.236-15.442-11.346-20.306-16.026l-1.034-1.014c-3.594-3.86-5.571-8.878-5.571-14.11 0-5.274 2.007-10.311 5.652-14.213 3.984-4.26 9.359-6.584 15.145-6.584 5.366 0 10.414 1.997 14.295 5.653 6.656 5.038 15.084 11.407 24.514 18.535v-173.752c0-8.438 6.871-15.329 15.329-15.329h226.222l-65.454 65.454c8.796 4.393 16.947 10.209 24.115 17.367 6.882 6.882 12.524 14.684 16.855 23.111l53.647-53.647v136.796c9.431-7.127 17.858-13.496 24.525-18.544 3.881-3.655 8.919-5.653 14.285-5.653 5.796 0 11.161 2.325 15.155 6.584 3.646 3.891 5.663 8.94 5.663 14.213 0 5.243-1.997 10.261-5.581 14.121zM319.938 180.675l0.327-0.327c-3.369-8.848-8.591-17.142-15.708-24.269-7.577-7.577-16.455-13.015-25.938-16.343-0.051-0.021-0.103-0.041-0.144-0.051-7.373-2.56-15.084-3.85-22.804-3.85-17.695 0-35.379 6.748-48.876 20.255-19.62 19.62-24.965 48.108-16.046 72.571l53.186-53.186 40.929 40.94-53.31 53.31c24.443 8.858 52.869 3.502 72.458-16.097 19.733-19.743 25.026-48.405 15.923-72.95z" />
<glyph unicode="&#xe602;" d="M174.529 379.538h162.945c40.899 0 74.066-33.167 74.066-74.066v-162.945c0-40.892-33.167-74.066-74.066-74.066h-162.945c-40.906 0-74.066 33.167-74.066 74.066v162.945c0 40.906 33.16 74.066 74.066 74.066zM352.285 284.416l-33.188 24.76-85.316-105.041-42.647 41.269-31.419-26.76 76.31-79.82z" />
<glyph unicode="&#xe603;" d="M100.463 379.538l311.076-155.538-311.075-155.538v311.075z" />
<glyph unicode="&#xe605;" d="M337.472 379.538h-162.945c-40.906 0-74.066-33.16-74.066-74.066v-162.945c0-40.899 33.16-74.066 74.066-74.066h162.945c40.899 0 74.066 33.167 74.066 74.066v162.945c0 40.906-33.167 74.066-74.066 74.066zM381.911 158.045c0-33.107-26.849-59.956-59.956-59.956h-131.911c-33.114 0-59.956 26.849-59.956 59.956v131.911c0 33.108 26.841 59.956 59.956 59.956h131.911c33.108 0 59.956-26.849 59.956-59.956v-131.911z" />
<glyph unicode="&#xe607;" d="M256 389.906c91.628 0 165.906-74.279 165.906-165.906s-74.279-165.906-165.906-165.906-165.906 74.279-165.906 165.906c0 91.628 74.279 165.906 165.906 165.906z" />
<glyph unicode="&#xe608;" d="M256 334.066c60.788 0 110.066-49.278 110.066-110.066s-49.278-110.066-110.066-110.066-110.066 49.278-110.066 110.066c0 60.788 49.278 110.066 110.066 110.066z" />
<glyph unicode="&#xe60b;" d="M471.040 186.644l-215.050 119.275-215.030-119.275v-44.565l215.030 119.276 215.050-119.276z" />
<glyph unicode="&#xe60c;" d="M218.644 8.96l119.275 215.050-119.275 215.030h-44.565l119.275-215.030-119.275-215.050z" />
<glyph unicode="&#xe60d;" d="M40.96 261.356l215.050-119.275 215.030 119.275v44.575l-215.030-119.286-215.050 119.286z" />
<glyph unicode="&#xe60e;" d="M293.356 439.040l-119.275-215.050 119.275-215.030h44.575l-119.286 215.030 119.286 215.050z" />
<glyph unicode="&#xe60f;" d="M66.040 244.692h377.531v-35.955h-377.531v35.955zM236.827 415.48h35.955v-377.531h-35.955v377.531z" />
<glyph unicode="&#xe610;" d="M113.755 389.911l308.152-308.152-23.659-23.659-308.152 308.152 23.658 23.658zM398.245 389.911l23.659-23.658-308.152-308.152-23.658 23.659 308.152 308.152z" />
<glyph unicode="&#xe611;" d="M256 425.349l47.528-153.831h153.812l-124.434-95.057 47.538-153.812-124.443 95.075-124.444-95.075 47.518 153.812-124.424 95.057h153.812l47.537 153.831z" />
<glyph unicode="&#xe612;" d="M238.469 106.998c0 0-28.201 26.46-67.246 26.46s-88.207-28.017-136.663-26.583v3.144l46.039 206.080c24.443 4.045 21.965 3.604 33.977 7.219 23.91 7.24 38.38 18.125 65.864 17.838 46.756-0.482 57.314-30.382 65.26-39.035l-7.23-195.123zM274.616 106.998c0 0 27.658 26.46 66.714 26.46 39.035 0 87.47-28.017 136.11-26.583v3.144l-45.486 206.080c-24.443 4.045-21.688 3.604-33.71 7.219-23.911 7.24-38.236 18.125-65.731 17.838-46.756-0.482-57.231-30.382-65.178-39.035l7.281-195.123z" />
<glyph unicode="&#xe614;" d="M394.366 311.625l-48.131 35.896-123.725-152.306-61.846 59.838-45.563-38.796 110.664-115.766z" horiz-adv-x="510" />
<glyph unicode="&#xe617;" d="M256 389.906c91.628 0 165.906-74.271 165.906-165.906 0-91.628-74.279-165.906-165.906-165.906s-165.906 74.279-165.906 165.906c0 91.635 74.279 165.906 165.906 165.906zM256 279.302c30.543 0 55.302-24.76 55.302-55.302s-24.76-55.302-55.302-55.302-55.302 24.76-55.302 55.302 24.76 55.302 55.302 55.302z" />
<glyph unicode="&#xe619;" d="M327.721 203.889h-143.463c-41.349 0-74.987-32.88-74.987-73.308v-74.823h34.816v74.823c0 21.217 18.023 38.492 40.172 38.492h143.463c22.169 0 40.182-17.275 40.182-38.492v-74.823h34.816v74.823c0.010 40.428-33.639 73.308-74.998 73.308zM258.375 226.939c46.663 0 84.624 37.079 84.624 82.657 0 45.568-37.959 82.637-84.624 82.637-46.654 0-84.593-37.069-84.593-82.637 0.010-45.578 37.95-82.657 84.593-82.657zM258.375 357.417c27.474 0 49.808-21.453 49.808-47.821 0-26.378-22.344-47.841-49.808-47.841-27.443 0-49.776 21.463-49.776 47.841 0.010 26.368 22.344 47.821 49.776 47.821z" />
</font>
</defs>
</svg>
